<svg id="Capa_1" enable-background="new 0 0 512 512" height="512" viewBox="0 0 512 512" width="512" xmlns="http://www.w3.org/2000/svg"><g><path d="m437.019 74.981c-48.352-48.352-112.639-74.981-181.019-74.981s-132.667 26.629-181.019 74.981-74.981 112.639-74.981 181.019c0 12.538.915 25.138 2.72 37.449.606 4.131 4.444 6.99 8.577 6.383 4.131-.605 6.989-4.445 6.384-8.576-1.7-11.588-2.561-23.45-2.561-35.256 0-132.822 108.058-240.88 240.88-240.88s240.88 108.058 240.88 240.88c0 55.133-18.632 105.988-49.911 146.631-22.65-41.904-65.582-69.533-113.368-72.489v-26.427c10.037-10.973 17.76-23.923 22.628-38.009 16.242-.729 34.567-19.281 43.719-38.713 10.442-22.172 5.783-40.54-12.463-49.133-8.787-4.138-17.515-4.375-25.313-.924v-70.985c0-10.279-4.273-20.237-11.722-27.321l-22.62-21.507c-13.414-12.753-32.634-16.975-50.156-11.018l-81.263 27.623c-24.418 8.3-40.824 31.204-40.824 56.994v46.22c-7.801-3.451-16.532-3.217-25.312.917-18.246 8.593-22.905 26.96-12.463 49.134 9.249 19.638 27.473 38.036 43.701 38.726 4.842 14.065 12.538 27.014 22.646 38.029v26.17c-50.165 1.012-95.497 28.938-119.105 72.657-17.569-22.695-31.226-48.695-39.769-77.108-1.202-3.999-5.419-6.265-9.417-5.064-3.998 1.202-6.265 5.418-5.063 9.416 10.001 33.264 27.008 64.355 49.408 91 12.305 14.704 26.333 28.009 41.672 39.612 44.684 33.737 97.976 51.569 154.115 51.569 68.38 0 132.667-26.629 181.019-74.981s74.981-112.639 74.981-181.019-26.629-132.667-74.981-181.019zm-237.74 242.418c2.136 1.77 29.231 19.765 32.205 21.821 8.322 5.593 17.859 8.39 27.397 8.39 9.537 0 19.075-2.797 27.397-8.39 3.101-2.143 29.954-19.977 32.204-21.812v24.955c0 26.651-21.682 48.334-48.334 48.334h-22.535c-26.651 0-48.334-21.682-48.334-48.334zm1.998-229.355 81.264-27.623c12.182-4.143 25.546-1.207 34.872 7.661l22.62 21.507c4.462 4.243 7.021 10.207 7.021 16.363v39.504c-3.018-1.299-6.34-2.021-9.828-2.021h-99.223c-4.175 0-7.56 3.385-7.56 7.56s3.385 7.56 7.56 7.56h99.223c5.419 0 9.828 4.409 9.828 9.828v40.744c0 4.175 3.385 7.56 7.56 7.56s7.56-3.385 7.56-7.56v-13.785c5.535-6.038 11.57-7.242 18.871-3.803 3.824 1.801 15.461 7.281 5.226 29.012-6.482 13.762-17.657 24.99-25.773 28.744.157-.885.305-1.771.441-2.662.628-4.128-2.209-7.983-6.337-8.61-4.135-.629-7.983 2.209-8.61 6.337-3.929 25.841-18.627 49.026-40.327 63.611l-27.821 18.7c-11.519 7.742-26.406 7.743-37.925 0l-27.822-18.7c-25.917-17.42-41.39-46.462-41.39-77.69v-61.9c0-5.419 4.409-9.828 9.828-9.828h21.879c4.175 0 7.56-3.385 7.56-7.56s-3.385-7.56-7.56-7.56h-21.879c-3.488 0-6.81.722-9.828 2.021v-14.733c0-19.311 12.285-36.462 30.57-42.677zm-69.786 132.507c-10.234-21.732 1.403-27.212 5.226-29.013 7.303-3.439 13.333-2.231 18.871 3.808v34.935c0 6.428.575 12.773 1.672 18.981-7.8-3.577-18.821-13.957-25.769-28.711zm124.509 276.329c-70.117 0-135.533-31.145-180.437-81.661 20.07-42.002 62.012-69.153 108.665-70.183 1.407 33.752 29.294 60.781 63.386 60.781h22.535c34.005 0 61.841-26.89 63.379-60.522 44.289 3.051 83.802 29.877 102.963 70.037-44.17 49.975-108.708 81.548-180.491 81.548z"/><circle cx="303.449" cy="210.932" r="11.574"/><path d="m225.237 269.552c7.525 10.911 19.917 17.425 33.149 17.425s25.624-6.514 33.149-17.425c2.37-3.437 1.506-8.145-1.932-10.515-3.436-2.37-8.146-1.506-10.515 1.932-4.702 6.818-12.441 10.889-20.702 10.889s-16-4.071-20.702-10.889c-2.371-3.437-7.078-4.302-10.515-1.932-3.438 2.371-4.302 7.078-1.932 10.515z"/><circle cx="213.163" cy="210.932" r="11.574"/></g></svg>