<svg id="Layer_3" enable-background="new 0 0 64 64" height="512" viewBox="0 0 64 64" width="512" xmlns="http://www.w3.org/2000/svg"><g><path d="m39 42v-22c0-10.389-7.611-18-17-18-9.389 0-17 7.611-17 17v23" fill="#976947"/><path d="m15 38-8.765 2.697c-2.517.774-4.235 3.1-4.235 5.734v15.569h40v-15.569c0-2.634-1.718-4.96-4.235-5.735l-8.765-2.696" fill="#ebf7fe"/><path d="m28 47 5-1v-6.769l-4-1.231h-14l-4 1.231v6.769l5 1-2 2 8 13 8-13z" fill="#c7e2fc"/><path d="m15 38 7 17 7-17" fill="#59ac98"/><g><path d="m8 50h2v12h-2z" fill="#c7e2fc"/></g><g><path d="m34 50h2v12h-2z" fill="#c7e2fc"/></g><circle cx="47" cy="36" fill="#c7e2fc" r="3"/><circle cx="58" cy="35" fill="#a1cdfb" r="4"/><circle cx="52" cy="34" fill="#ebf7fe" r="4"/><path d="m52 42v8l-5.613 8.42c-.252.378-.387.823-.387 1.277 0 1.272 1.031 2.303 2.303 2.303h11.394c1.272 0 2.303-1.031 2.303-2.303 0-.455-.135-.899-.387-1.277l-5.613-8.42v-8" fill="#c7e2fc"/><path d="m54.675 56.07-.351-.14c-1.535-.614-3.174-.93-4.828-.93h-.83l-2.28 3.42c-.251.378-.386.823-.386 1.277 0 1.272 1.031 2.303 2.303 2.303h11.394c1.272 0 2.303-1.031 2.303-2.303 0-.455-.135-.899-.387-1.277l-.946-1.42h-1.163c-1.654 0-3.293-.316-4.829-.93z" fill="#f5b953"/><path d="m21 12v1c0 4.418 3.582 8 8 8h6v6c0 7.18-5.82 13-13 13-7.18 0-13-5.82-13-13v-6h3c4.971 0 9-4.029 9-9z" fill="#efbe9a"/><path d="m35 21c2.209 0 4 1.791 4 4 0 2.209-1.791 4-4 4" fill="#db9b7c"/><path d="m9 21c-2.209 0-4 1.791-4 4 0 2.209 1.791 4 4 4" fill="#db9b7c"/><path d="m9 25c2.596 1.947 5.754 3 9 3 .64 0 1.254-.254 1.707-.707l.586-.586c.453-.453 1.067-.707 1.707-.707.64 0 1.254.254 1.707.707l.586.586c.453.453 1.067.707 1.707.707 3.246 0 6.404-1.053 9-3v-5h-26z" fill="#c7e2fc"/><g><path d="m22 36c-2.214 0-4.269-1.1-5.496-2.941l-.336-.504 1.664-1.109.336.504c.856 1.283 2.289 2.05 3.832 2.05s2.976-.767 3.832-2.051l.336-.504 1.664 1.109-.336.504c-1.227 1.842-3.282 2.942-5.496 2.942z" fill="#db9b7c"/></g><g><path d="m16.5 25c-.827 0-1.5-.673-1.5-1.5s.673-1.5 1.5-1.5 1.5.673 1.5 1.5-.673 1.5-1.5 1.5z" fill="#8892a0"/></g><g><path d="m27.5 25c-.827 0-1.5-.673-1.5-1.5s.673-1.5 1.5-1.5 1.5.673 1.5 1.5-.673 1.5-1.5 1.5z" fill="#8892a0"/></g></g></svg>